PathFileType	4	(X/Y/Z)	C:/Users/opensim2020/Desktop/walking_exp_matlab/subject02_walking10_straight_02.trc																																																																																																																															
DataRate	CameraRate	NumFrames	NumMarkers	Units	OrigDataRate	OrigDataStartFrame	OrigNumFrames																																																																																																																											
100	100	6	43	mm	100	1540	280																																																																																																																											
Frame#	Time	LFHD			RFHD			LBHD			RBHD			C7			T10			CLAV			STRN			RBAK			LSHO			LUPA			LELB			LFRM			LWRA			LWRB			LFIN			RSHO			RUPA			RELB			RFRM			RWRA			RWRB			RFIN			LASI			RASI			LPSI			RPSI			LTHI			LKNE			LTIB			LANK			LHEE			LTOE			RTHI			RKNE			RTIB			RANK			RHEE			RTOE			*39			*40			*41			*42		
		X1	Y1	Z1	X2	Y2	Z2	X3	Y3	Z3	X4	Y4	Z4	X5	Y5	Z5	X6	Y6	Z6	X7	Y7	Z7	X8	Y8	Z8	X9	Y9	Z9	X10	Y10	Z10	X11	Y11	Z11	X12	Y12	Z12	X13	Y13	Z13	X14	Y14	Z14	X15	Y15	Z15	X16	Y16	Z16	X17	Y17	Z17	X18	Y18	Z18	X19	Y19	Z19	X20	Y20	Z20	X21	Y21	Z21	X22	Y22	Z22	X23	Y23	Z23	X24	Y24	Z24	X25	Y25	Z25	X26	Y26	Z26	X27	Y27	Z27	X28	Y28	Z28	X29	Y29	Z29	X30	Y30	Z30	X31	Y31	Z31	X32	Y32	Z32	X33	Y33	Z33	X34	Y34	Z34	X35	Y35	Z35	X36	Y36	Z36	X37	Y37	Z37	X38	Y38	Z38	X39	Y39	Z39	X40	Y40	Z40	X41	Y41	Z41	X42	Y42	Z42	X43	Y43	Z43
																																																																																																																																		
141	1.4	-21.97305	1756.96851	1031.34082	-27.32923	1729.47583	1172.74109	-147.40157	1675.84351	1011.83997	-164.71831	1646.45251	1152.9281	-197.70821	1534.4032	1086.23499	-254.56343	1260.37952	1102.94421	-60.35518	1463.99207	1062.42615	-10.42926	1290.99219	1071.42139	-250.30649	1364.12378	1161.30933	-143.64957	1506.12744	899.74036	-183.5504	1306.85864	823.79553	-202.66463	1166.40161	817.5343	-205.12575	1034.27295	807.59039	-157.15677	904.68378	838.81873	-204.5119	910.51678	807.97766	-190.49915	844.5575	806.57184	-98.95142	1502.59961	1263.4469	-105.68455	1314.5105	1357.66296	-79.08674	1170.28113	1380.16895	-33.06196	1058.70386	1395.95667	28.55553	939.73145	1371.92444	-11.33218	931.0675	1410.6947	35.30019	875.55243	1409.32178	-32.45216	998.40875	954.78363	-15.42838	984.46851	1210.04272	-235.65302	1040.86523	1048.62122	-232.85524	1041.36255	1163.9801	-49.03977	693.64587	879.96252	-26.80225	504.7684	895.10297	-141.37433	356.58353	911.37329	-216.26819	147.68715	944.04132	-243.34048	128.12234	1004.96167	-97.86188	61.48724	894.23602	-87.49311	674.08313	1265.80078	-92.50101	465.49985	1213.04675	-138.02959	281.45688	1210.84692	-161.91814	92.18876	1162.51868	-196.87958	40.3651	1103.57751	-11.51303	38.66737	1180.86414	-131.18753	1811.0105	1120.34204	-2845.14453	1034.23914	3360.38306	NaN	NaN	NaN	NaN	NaN	NaN
142	1.41	-13.77536	1756.44067	1031.49146	-19.11041	1729.59253	1172.6853	-139.96022	1676.13147	1012.75293	-156.98114	1647.1322	1153.4613	-190.51662	1534.76929	1087.24438	-247.83473	1260.83997	1103.93176	-53.29858	1464.21301	1063.10254	-3.78116	1291.26221	1072.71716	-243.06976	1364.63452	1162.40869	-137.31601	1505.91296	900.73755	-178.67883	1306.99536	824.87506	-198.4975	1166.71802	818.52014	-200.40553	1034.32593	808.27643	-153.01765	904.6889	839.00635	-200.77756	910.81738	808.89941	-186.53394	844.94287	806.81018	-91.39419	1503.61267	1264.27466	-96.09989	1315.70105	1359.18604	-68.28032	1171.45398	1381.44434	-21.19638	1060.4519	1397.31104	40.93464	941.87537	1372.81018	1.63005	933.00079	1412.16418	48.72836	877.85583	1410.47473	-24.98887	999.31104	956.66516	-9.65329	983.92975	1211.87817	-229.05144	1041.59937	1048.67114	-226.91618	1041.39441	1163.97229	-39.8848	694.8653	880.44928	-15.54389	505.35513	896.18066	-124.34954	351.63147	911.21234	-190.1125	139.48604	942.84015	-216.81102	118.45848	1003.26227	-67.78974	58.89338	893.37366	-83.83318	673.72919	1265.98694	-90.12324	465.44962	1213.49316	-136.83514	281.52039	1210.80176	-161.71013	92.30663	1162.33057	-196.84917	40.56088	1103.47205	-11.49375	38.74185	1181.07739	-122.6731	1811.48181	1120.32458	-2846.02075	1034.13977	3357.32153	NaN	NaN	NaN	NaN	NaN	NaN
143	1.42	-6.0317	1756.27612	1030.90869	-10.93075	1729.62573	1172.5509	-132.4917	1676.23755	1013.13245	-149.4368	1648.16162	1154.48315	-183.33978	1535.04944	1088.13184	-241.10538	1261.14111	1104.77039	-46.26036	1464.24292	1063.76477	3.04354	1291.27673	1074.06067	-235.9147	1365.11682	1163.87671	-130.98891	1505.56641	901.66901	-173.75053	1306.88184	826.07208	-194.3208	1166.68713	819.30157	-196.76749	1034.2207	809.46039	-148.86421	904.80688	839.08075	-197.11331	910.73035	809.68787	-182.5341	845.14825	806.98199	-83.72123	1504.3949	1264.94714	-86.7213	1316.6842	1360.47864	-57.57162	1172.64795	1382.88672	-9.43746	1062.08997	1398.57983	53.44383	943.94421	1373.81702	14.55083	934.92621	1413.50854	62.01027	880.01355	1411.52197	-17.17558	1000.05615	957.99969	-3.95231	983.21234	1213.59692	-222.47562	1042.26465	1048.78052	-220.82767	1041.44263	1163.93762	-30.76978	696.15253	880.82153	-4.82015	505.61047	897.23987	-107.26435	346.38638	910.7818	-163.4976	131.44714	941.23743	-189.77362	109.45931	1001.71509	-37.44885	56.07347	892.51825	-80.33293	673.42963	1265.96509	-87.70187	464.92349	1213.12207	-135.53975	281.55319	1210.78406	-161.50267	92.45305	1162.1781	-196.66298	40.7526	1103.30957	-11.38549	38.61901	1181.16248	-114.29749	1811.67627	1120.02197	-2845.84912	1034.21082	3357.26563	NaN	NaN	NaN	NaN	NaN	NaN
144	1.43	1.82016	1755.84229	1030.5824	-2.64464	1729.47302	1172.40112	-125.01704	1676.24402	1013.46521	-141.94817	1648.55725	1154.99902	-176.14563	1535.2229	1088.95911	-234.40324	1261.38977	1105.51904	-39.21566	1464.13794	1064.46814	9.90596	1291.20227	1075.34619	-228.811	1365.51575	1165.20789	-124.58505	1505.10046	902.56396	-168.35265	1306.7113	827.19159	-189.58148	1166.68359	820.34534	-192.71564	1034.33142	810.25769	-144.42747	904.93646	838.87756	-192.95105	910.7085	810.42957	-178.68474	845.32019	807.08234	-76.15148	1504.96277	1265.60632	-77.55301	1317.31189	1361.16711	-46.96587	1173.70349	1384.19153	2.17016	1063.54602	1399.69458	66.24239	946.22626	1374.85718	27.30633	936.57629	1414.60144	75.24446	882.20734	1412.40466	-9.74454	1000.37128	959.30511	1.85918	982.41138	1215.10181	-215.73607	1042.55493	1048.71741	-214.68205	1041.46851	1163.89978	-21.52902	697.57758	881.50464	5.27471	505.55109	898.46515	-90.09057	341.0502	910.1745	-136.73077	123.77343	939.62097	-161.99905	100.39918	999.95355	-7.20329	53.42752	891.58765	-76.65545	673.01312	1266.05164	-85.23488	464.60272	1213.1532	-134.17883	281.56946	1210.6925	-161.27563	92.58015	1162.05212	-196.59877	40.75194	1103.41516	-11.49368	38.4592	1181.28467	-105.79135	1812.15527	1120.00171	-2845.19629	1033.99402	3360.50806	NaN	NaN	NaN	NaN	NaN	NaN
145	1.44	9.80211	1755.16663	1030.26184	5.40066	1729.36658	1171.89026	-117.51951	1676.13672	1013.66583	-134.168	1648.90674	1155.26709	-168.98558	1535.2843	1089.79675	-227.6994	1261.47729	1106.19482	-32.14318	1463.94666	1065.17578	16.79419	1290.81738	1076.5885	-221.7811	1365.98059	1166.8103	-118.06788	1504.55627	903.31433	-162.98656	1306.52515	828.27026	-184.83762	1166.52771	821.23175	-188.44702	1034.17114	810.93958	-139.92134	904.7041	838.71765	-188.85011	910.58624	811.10443	-174.63765	845.18005	807.16089	-68.43039	1505.30005	1266.06775	-68.45518	1318.26721	1363.12427	-36.47241	1174.61035	1385.40247	13.67194	1064.91846	1400.72522	78.58535	948.21637	1375.5675	40.04669	938.16663	1415.64087	88.417	884.30383	1413.19946	-2.67563	1000.23029	960.64911	7.63406	981.52551	1216.43726	-208.96997	1042.61621	1048.67346	-208.46419	1041.48315	1163.89722	-12.74922	698.49207	881.93542	15.0056	505.27951	899.52264	-72.88081	335.81891	909.45337	-109.68932	116.61415	937.86945	-134.129	92.43372	998.20648	23.12477	51.39763	890.75793	-72.80674	672.55133	1266.23486	-82.78944	464.52347	1213.62939	-132.88968	281.5748	1210.64343	-161.03423	92.68176	1161.93115	-196.55	40.8712	1103.08252	-11.47822	38.28361	1181.38818	-97.38491	1812.29199	1119.69324	-2845.92554	1034.36768	3357.35449	NaN	NaN	NaN	NaN	NaN	NaN
146	1.45	17.47594	1754.28857	1029.65698	13.51337	1729.13245	1171.56018	-110.06496	1675.81665	1013.77216	-126.3368	1649.11267	1155.30042	-161.78423	1535.24768	1090.45496	-220.95091	1261.50574	1106.74744	-25.09959	1463.65771	1065.63965	23.51526	1290.63843	1077.7373	-214.78191	1366.13245	1167.84192	-111.48312	1503.94775	904.06232	-157.33163	1305.83911	829.4198	-179.93797	1166.18713	822.6499	-183.76355	1033.70667	811.7038	-135.15701	904.35498	838.53864	-184.81647	910.30322	811.71863	-170.31068	844.9245	807.10583	-61.04958	1505.69189	1266.64441	-59.44301	1318.5614	1363.60901	-26.15896	1175.38184	1386.49951	25.1061	1066.21143	1401.62146	90.38101	949.68756	1376.02808	52.68902	939.67114	1416.54834	101.54967	886.27917	1413.80383	4.82265	1000.18286	961.34082	13.63345	980.63147	1217.51843	-202.18604	1042.5885	1048.66516	-202.09538	1041.37524	1163.80664	-3.76998	699.18567	882.57385	24.29567	504.70752	900.659	-55.8239	330.79773	909.02893	-82.60774	109.93193	935.98547	-106.26864	84.7979	996.04395	53.57615	50.38427	889.88007	-68.96555	672.09314	1266.28552	-80.31322	464.1236	1213.56238	-131.62672	281.52344	1210.57239	-160.80688	92.77556	1161.77502	-196.54005	40.75694	1102.6283	-11.44088	38.18416	1181.57068	-89.08651	1812.29736	1119.37305	-2845.19873	1034.17615	3360.29517	NaN	NaN	NaN	NaN	NaN	NaN
